<svg width="363" height="48" viewBox="0 0 363 48" fill="none" xmlns="http://www.w3.org/2000/svg">
<rect width="48" height="48" rx="4" fill="white"/>
<path d="M24.0002 30.6382C15.116 30.6382 8.16016 27.6079 8.16016 23.7512C8.16016 19.8945 15.116 16.8643 24.0002 16.8643C32.8843 16.8643 39.8402 19.8945 39.8402 23.7512C39.8402 27.6079 32.8843 30.6382 24.0002 30.6382ZM24.0002 18.2416C15.3226 18.2416 9.53755 21.0653 9.53755 23.7512C9.53755 26.4371 15.3226 29.2608 24.0002 29.2608C32.6777 29.2608 38.4628 26.4371 38.4628 23.7512C38.4628 21.0653 32.6777 18.2416 24.0002 18.2416Z" fill="#61DAFB"/>
<path d="M17.871 37.9389C17.1823 37.9389 16.6314 37.8011 16.0804 37.4568C12.7058 35.5284 13.6011 28.0216 18.0088 20.3082C20.0749 16.727 22.623 13.6968 25.1023 11.7684C27.7883 9.70232 30.1987 9.08249 31.8516 10.0467C33.5733 11.0108 34.1931 13.4213 33.7799 16.7959C33.3667 19.9639 31.9893 23.6828 29.9232 27.2641C27.8571 30.8453 25.3089 33.8755 22.8296 35.8039C21.039 37.1813 19.3173 37.9389 17.871 37.9389ZM30.1298 10.942C29.0279 10.942 27.5816 11.5618 25.9976 12.8015C23.6561 14.6609 21.2456 17.5535 19.2484 20.9969C14.9096 28.5037 14.4964 34.9775 16.7691 36.286C17.9399 36.9747 19.8683 36.3549 22.0032 34.702C24.3448 32.8425 26.7552 29.95 28.7524 26.5065C30.7496 23.063 32.0582 19.5507 32.4714 16.5893C32.8157 13.8345 32.4025 11.9061 31.2317 11.2175C30.8874 11.0797 30.543 10.942 30.1298 10.942Z" fill="#61DAFB"/>
<path d="M30.1984 37.9387C26.7549 37.9387 21.7963 33.7376 18.0773 27.195C13.6008 19.4816 12.7055 11.9749 16.0801 10.0465C19.4547 8.11815 25.5152 12.5947 29.9918 20.3081C32.0578 23.8893 33.4352 27.6082 33.8484 30.7762C34.3305 34.1509 33.6418 36.4924 31.9201 37.5255C31.3691 37.8009 30.8182 37.9387 30.1984 37.9387ZM16.7688 11.2173C14.4961 12.5258 14.9093 18.9995 19.2481 26.5063C23.5869 34.0131 28.9587 37.5943 31.2314 36.2858C32.4022 35.5971 32.8154 33.6688 32.4711 30.914C32.0578 27.9526 30.7493 24.4402 28.7521 20.9968C24.4133 13.49 19.0415 9.90876 16.7688 11.2173Z" fill="#61DAFB"/>
<path d="M23.9989 26.5057C25.5203 26.5057 26.7537 25.2723 26.7537 23.7509C26.7537 22.2295 25.5203 20.9961 23.9989 20.9961C22.4775 20.9961 21.2441 22.2295 21.2441 23.7509C21.2441 25.2723 22.4775 26.5057 23.9989 26.5057Z" fill="#61DAFB"/>
<rect x="63" width="48" height="48" rx="4" fill="white"/>
<path d="M71.1602 10.5596L75.2924 13.3144V27.0885L71.1602 24.3337V10.5596Z" fill="#29B6F6"/>
<path d="M102.841 20.8906L98.7085 23.6454V32.5986L102.841 29.8438V20.8906Z" fill="#0288D1"/>
<path d="M102.841 11.248L98.7085 14.0029V18.8238L102.841 16.069V11.248Z" fill="#0288D1"/>
<path d="M94.5756 10.5596L90.4434 13.3144V27.0885L94.5756 24.3337V10.5596Z" fill="#0288D1"/>
<path d="M71.1602 15.3805L82.8681 22.9563V18.1353L71.1602 10.5596V15.3805Z" fill="#29B6F6"/>
<path d="M94.5757 15.3805L82.8677 22.9563V18.1353L94.5757 10.5596V15.3805Z" fill="#0288D1"/>
<path d="M94.5757 25.0221L82.8677 32.5979V27.7769L94.5757 20.2012V25.0221Z" fill="#0288D1"/>
<path d="M102.84 30.5319L91.1318 38.1076V33.2867L102.84 25.7109V30.5319Z" fill="#0288D1"/>
<path d="M91.1321 33.1251L82.8677 27.7773V32.5983L91.1321 37.9461V33.1251Z" fill="#29B6F6"/>
<rect x="126" width="48" height="48" rx="4" fill="white"/>
<g clip-path="url(#clip0_8421_200632)">
<path d="M150 38.5C158.284 38.5 165 31.7843 165 23.5C165 15.2157 158.284 8.5 150 8.5C141.716 8.5 135 15.2157 135 23.5C135 31.7843 141.716 38.5 150 38.5Z" fill="black"/>
<path d="M159.918 34.7533L146.524 17.5H144V29.4951H146.019V20.0638L158.333 35.9741C158.888 35.6029 159.417 35.1951 159.918 34.7533Z" fill="url(#paint0_linear_8421_200632)"/>
<path d="M154.167 17.5H156.166V29.5H154.167V17.5Z" fill="url(#paint1_linear_8421_200632)"/>
</g>
<rect x="189" width="48" height="48" rx="4" fill="white"/>
<path d="M201.16 40.3197C198.951 40.3197 197.16 38.5288 197.16 36.3197V12.6397C197.16 10.4305 198.951 8.63965 201.16 8.63965H224.84C227.049 8.63965 228.84 10.4305 228.84 12.6396V36.3197C228.84 38.5288 227.049 40.3197 224.84 40.3197H201.16Z" fill="#FFD600"/>
<path d="M217.873 32.3531C218.482 33.3422 219.144 34.29 220.546 34.29C221.723 34.29 222.341 33.7048 222.341 32.8952C222.341 31.9263 221.702 31.5822 220.407 31.0181L219.697 30.7154C217.647 29.846 216.284 28.7565 216.284 26.4553C216.284 24.3345 217.908 22.7206 220.445 22.7206C222.251 22.7206 223.549 23.3463 224.486 24.9848L222.273 26.399C221.787 25.5296 221.261 25.1872 220.445 25.1872C219.612 25.1872 219.085 25.7126 219.085 26.399C219.085 27.2473 219.613 27.5905 220.832 28.1159L221.542 28.4186C223.958 29.4473 225.32 30.498 225.32 32.86C225.32 35.4049 223.31 36.7997 220.612 36.7997C217.973 36.7997 216.474 35.4753 215.64 33.8359L217.873 32.3531ZM207.678 32.4252C208.123 33.2225 208.8 33.8359 209.773 33.8359C210.704 33.8359 211.24 33.468 211.24 32.038V22.7197H214.173V32.4886C214.173 35.4516 212.454 36.7997 209.945 36.7997C207.677 36.7997 206.04 35.2632 205.373 33.8359L207.678 32.4252Z" fill="#000001"/>
<rect x="252" width="48" height="48" rx="4" fill="white"/>
<path d="M287 9.59961H265C262.791 9.59961 261 11.3905 261 13.5996V35.5996C261 37.8087 262.791 39.5996 265 39.5996H287C289.209 39.5996 291 37.8087 291 35.5996V13.5996C291 11.3905 289.209 9.59961 287 9.59961Z" fill="#1976D2"/>
<path d="M278.908 22.9326H267.855V25.6526H271.82V37.9326H274.96V25.6526H278.908V22.9326Z" fill="#141414"/>
<path d="M288.661 26.3366C288.661 26.3366 287.172 25.3433 285.489 25.3433C283.805 25.3433 283.2 26.1433 283.2 26.9983C283.2 29.205 289.35 28.9841 289.35 33.425C289.35 40.2658 279.972 37.2316 279.972 37.2316V33.95C279.972 33.95 281.765 35.3016 283.916 35.3016C286.067 35.3016 285.985 33.895 285.985 33.7016C285.985 31.6608 279.89 31.6608 279.89 27.1366C279.89 20.9858 288.771 23.4125 288.771 23.4125L288.661 26.3366Z" fill="#141414"/>
<rect x="315" width="48" height="48" rx="4" fill="white"/>
<g clip-path="url(#clip1_8421_200632)">
<path d="M334.002 39C336.762 39 339.002 36.76 339.002 34V29H334.002C331.242 29 329.002 31.24 329.002 34C329.002 36.76 331.242 39 334.002 39Z" fill="#0ACF83"/>
<path d="M329.002 24C329.002 21.24 331.242 19 334.002 19H339.002V29H334.002C331.242 29 329.002 26.76 329.002 24Z" fill="#A259FF"/>
<path d="M329.002 14C329.002 11.24 331.242 9 334.002 9H339.002V19H334.002C331.242 19 329.002 16.76 329.002 14Z" fill="#F24E1E"/>
<path d="M339.002 9H344.002C346.762 9 349.002 11.24 349.002 14C349.002 16.76 346.762 19 344.002 19H339.002V9Z" fill="#FF7262"/>
<path d="M349.002 24C349.002 26.76 346.762 29 344.002 29C341.242 29 339.002 26.76 339.002 24C339.002 21.24 341.242 19 344.002 19C346.762 19 349.002 21.24 349.002 24Z" fill="#1ABCFE"/>
</g>
<defs>
<linearGradient id="paint0_linear_8421_200632" x1="153.167" y1="27.9166" x2="159.083" y2="35.25" gradientUnits="userSpaceOnUse">
<stop stop-color="white"/>
<stop offset="1" stop-color="white" stop-opacity="0"/>
</linearGradient>
<linearGradient id="paint1_linear_8421_200632" x1="155.166" y1="17.5" x2="155.133" y2="26.3125" gradientUnits="userSpaceOnUse">
<stop stop-color="white"/>
<stop offset="1" stop-color="white" stop-opacity="0"/>
</linearGradient>
<clipPath id="clip0_8421_200632">
<rect width="30" height="30" fill="white" transform="translate(135 8.5)"/>
</clipPath>
<clipPath id="clip1_8421_200632">
<rect width="20.004" height="30" fill="white" transform="translate(329 9)"/>
</clipPath>
</defs>
</svg>
